Coordinates
version=1
nRows=25
nColumns=23
inDegrees=yes

Units are S.I. units (second, meters, Newtons, ...)
If the header above contains a line with 'inDegrees', this indicates whether rotational values are in degrees (yes) or radians (no).

endheader
time	pelvis_tilt	pelvis_list	pelvis_rotation	pelvis_tx	pelvis_ty	pelvis_tz	hip_flexion_r	hip_adduction_r	hip_rotation_r	knee_angle_r	knee_angle_r_beta	ankle_angle_r	subtalar_angle_r	mtp_angle_r	hip_flexion_l	hip_adduction_l	hip_rotation_l	knee_angle_l	knee_angle_l_beta	ankle_angle_l	subtalar_angle_l	mtp_angle_l
      0.00000000	      5.00113013	      6.05403102	      9.72774637	      2.04433621	      0.83348885	      1.00653736	     -6.03061646	     -8.88526008	    -19.69980495	     83.09243202	      1.45023652	    -10.44119083	    -18.86572415	      0.00000000	     17.03281451	     12.88443997	      6.17899353	     42.82849611	      0.74749827	     14.80035712	     -9.64330536	      0.00000000
      0.00666667	      5.22289784	      6.20220860	      9.82679822	      2.04162532	      0.83118385	      1.00681406	     -3.92917960	     -9.41811232	    -18.94793368	     85.72917034	      1.49625629	     -9.77718560	    -18.55609464	      0.00000000	     16.36006012	     12.61362703	      5.81416068	     44.18072319	      0.77109909	     16.53906976	     -8.45576986	      0.00000000
      0.01333333	      5.48066369	      6.33141569	      9.82344497	      2.03893940	      0.82891413	      1.00729876	     -1.84111555	     -9.87090266	    -18.06590846	     88.22572901	      1.53982946	     -9.13838975	    -18.25840807	      0.00000000	     15.60371198	     12.22867287	      5.30096959	     45.41635884	      0.79266500	     18.29179103	     -7.05675711	      0.00000000
      0.02000000	      5.65172446	      6.32775461	      9.80527293	      2.03633166	      0.82674099	      1.00788453	      0.37887741	    -10.11797269	    -17.12888345	     90.51018723	      1.57970077	     -8.59919554	    -18.01214084	      0.00000000	     14.89716237	     11.65254434	      4.71553548	     46.56009156	      0.81262690	     20.11108468	     -5.37188763	      0.00000000
      0.02666667	      5.90655065	      6.50969811	      9.61899453	      2.03377492	      0.82513607	      1.00841775	      2.48681599	    -10.60703132	    -16.07695710	     92.57637679	      1.61576258	     -8.02693951	    -17.52605267	      0.00000000	     13.81075302	     11.31526499	      4.18865463	     47.17483433	      0.82335618	     21.43375038	     -4.29663460	      0.00000000
      0.03333333	      5.96275516	      6.54244128	      9.46890314	      2.03132640	      0.82377220	      1.00885741	      4.81883357	    -10.90985159	    -15.03849494	     94.33700014	      1.64649126	     -7.48004468	    -17.01256005	      0.00000000	     12.85735641	     10.84598835	      3.65974541	     47.63984086	      0.83147208	     22.76639445	     -2.99353006	      0.00000000
      0.04000000	      5.97305889	      6.51133780	      9.28262773	      2.02895981	      0.82288207	      1.00917578	      7.19354401	    -11.12314792	    -13.97704711	     95.76981638	      1.67149862	     -6.99245760	    -16.53075790	      0.00000000	     11.81937827	     10.33456530	      3.12325923	     47.85811644	      0.83528171	     23.97838504	     -1.72599589	      0.00000000
      0.04666667	      6.21005309	      6.38637849	      9.27479962	      2.02688736	      0.82324613	      1.00898943	      9.09201595	    -11.21666281	    -13.23023465	     96.61332857	      1.68622068	     -6.71959762	    -16.24977124	      0.00000000	     10.20611712	      9.95500985	      3.29012607	     47.51790290	      0.82934386	     24.74991647	     -1.33780231	      0.00000000
      0.05333333	      6.06713984	      6.46536672	      8.79890407	      2.02479384	      0.82332555	      1.00938008	     11.62723973	    -11.50961592	    -11.93947065	     97.46856462	      1.70114737	     -6.05359637	    -15.45882986	      0.00000000	      8.97462180	      9.55855220	      2.40935489	     47.03644531	      0.82094084	     25.37655315	     -0.11871478	      0.00000000
      0.06000000	      6.03071709	      6.32691788	      8.58489017	      2.02299622	      0.82442664	      1.00920965	     13.78989958	    -11.55686810	    -11.06829104	     97.72118980	      1.70555651	     -5.62865108	    -15.08042143	      0.00000000	      7.42815914	      9.16325632	      2.22578468	     46.21859397	      0.80666664	     25.80530785	      0.50028465	      0.00000000
      0.06666667	      5.85116315	      5.96957913	      8.74371266	      2.02148839	      0.82606633	      1.00842640	     15.82202114	    -11.48658332	    -10.73594169	     97.47150219	      1.70119864	     -5.32267453	    -14.92899526	      0.00000000	      5.96081777	      8.69384413	      2.57500943	     45.27195064	      0.79014460	     26.10666739	      0.89625979	      0.00000000
      0.07333333	      5.80255301	      5.87660694	      8.26926888	      2.02006863	      0.82825987	      1.00836490	     17.85754189	    -11.44300413	     -9.74247518	     97.06494382	      1.69410286	     -4.78342651	    -14.64467903	      0.00000000	      4.13495525	      8.38668967	      2.21547195	     43.83934051	      0.76514083	     25.97042244	      1.43411621	      0.00000000
      0.08000000	      5.45312712	      5.46067540	      8.34048571	      2.01890375	      0.83070885	      1.00758342	     19.87742989	    -11.23245740	     -9.47188571	     96.18187297	      1.67869036	     -4.36267976	    -14.62298120	      0.00000000	      2.68558931	      7.92725998	      2.58666284	     42.49817519	      0.74173308	     25.90287065	      1.87211100	      0.00000000
      0.08666667	      5.56200563	      5.14621832	      8.04932025	      2.01805762	      0.83416257	      1.00711530	     21.27069209	    -10.96570984	     -9.02830417	     94.89892639	      1.65629872	     -4.01549107	    -14.90108372	      0.00000000	      0.51816790	      7.46861943	      2.59195664	     40.67843480	      0.70997262	     25.25043147	      1.95120233	      0.00000000
      0.09333333	      5.07628420	      4.63430715	      8.14564176	      2.01735039	      0.83723836	      1.00626240	     23.10610346	    -10.67279668	     -9.03194340	     93.37203627	      1.62964946	     -3.56577877	    -15.10605673	      0.00000000	     -0.84257457	      6.92234649	      2.97608212	     39.12863100	      0.68292344	     24.66772105	      2.30170303	      0.00000000
      0.10000000	      5.53348769	      4.01897077	      8.09394957	      2.01713636	      0.84209847	      1.00553974	     23.57215782	    -10.04768840	     -9.19208156	     91.20452053	      1.59181918	     -3.43544157	    -15.90232859	      0.00000000	     -3.52429152	      6.15097437	      3.43761232	     36.90194054	      0.64406036	     23.37754796	      1.83302664	      0.00000000
      0.10666667	      5.30991048	      3.41483164	      8.04020392	      2.01689576	      0.84613037	      1.00487986	     24.78140332	     -9.50452701	     -9.29567949	     89.00294307	      1.55339440	     -3.15498147	    -16.45224249	      0.00000000	     -5.29395248	      5.45675273	      3.69407235	     34.96553179	      0.61026365	     22.08375113	      1.81297360	      0.00000000
      0.11333333	      5.18534782	      2.72929383	      8.08855877	      2.01694525	      0.85049839	      1.00414106	     25.63516873	     -8.89880779	     -9.63241216	     86.46827112	      1.50915603	     -2.90245182	    -17.05111368	      0.00000000	     -7.15914576	      4.64311257	      4.02473322	     32.97893389	      0.57559098	     20.54436664	      1.64841689	      0.00000000
      0.12000000	      4.95339148	      2.01524576	      8.11905198	      2.01709912	      0.85480141	      1.00337141	     26.48510859	     -8.28002109	    -10.01808898	     83.71951791	      1.46118124	     -2.63403711	    -17.49455265	      0.00000000	     -8.84500093	      3.79747227	      4.23032856	     31.04396684	      0.54181943	     18.75737526	      1.53315781	      0.00000000
      0.12666667	      4.54163206	      1.35620955	      7.96851412	      2.01733780	      0.85884389	      1.00294557	     27.48028746	     -7.59442184	    -10.18328871	     80.83458482	      1.41082965	     -2.37480502	    -17.86286420	      0.00000000	    -10.27862156	      3.02120351	      4.11037383	     29.17358449	      0.50917510	     16.82291726	      1.54228748	      0.00000000
      0.13333333	      4.12228389	      0.66866104	      7.89089476	      2.01771440	      0.86287657	      1.00237286	     28.30287442	     -6.94630701	    -10.51512170	     77.71000202	      1.35629540	     -2.11520224	    -18.00509410	      0.00000000	    -11.62488948	      2.20147566	      3.96733521	     27.40151480	      0.47824665	     14.71373013	      1.54239541	      0.00000000
      0.14000000	      3.36204020	      0.09481132	      7.62546497	      2.01803730	      0.86626448	      1.00209877	     29.50311010	     -6.31345221	    -10.56285489	     74.56130852	      1.30134033	     -1.79703139	    -17.81308384	      0.00000000	    -12.46062805	      1.55357097	      3.47271218	     25.88827639	      0.45183566	     12.53567275	      1.75251003	      0.00000000
      0.14666667	      2.88769419	     -0.51767375	      7.35525441	      2.01856772	      0.87001494	      1.00179320	     30.16835678	     -5.57965738	    -10.69481647	     71.08152261	      1.24060661	     -1.56431286	    -17.55068522	      0.00000000	    -13.62546347	      0.85445340	      2.98964058	     24.29841736	      0.42408739	     10.24844913	      1.80872779	      0.00000000
      0.15333333	      2.02084006	     -0.97138412	      6.98973836	      2.01899042	      0.87295179	      1.00166120	     31.24868506	     -4.98035660	    -10.61868497	     67.62086031	      1.18020666	     -1.23657733	    -16.83262463	      0.00000000	    -14.15085583	      0.36647013	      2.27339301	     23.12609455	      0.40362649	      7.97390572	      2.04775363	      0.00000000
      0.16000000	      1.40279031	     -1.42485079	      6.59813544	      2.01951594	      0.87614633	      1.00155333	     31.85988837	     -4.30961595	    -10.57387361	     63.87637898	      1.11485313	     -0.97379227	    -15.93858814	      0.00000000	    -14.93853769	     -0.11352358	      1.57093283	     21.92912906	      0.38273550	      5.60391745	      2.24055270	      0.00000000
